<?xml version="1.0" encoding="utf-8"?>
<!-- Generator: Adobe Illustrator 16.0.0, SVG Export Plug-In . SVG Version: 6.00 Build 0)  -->
<!DOCTYPE svg PUBLIC "-//W3C//DTD SVG 1.1//EN" "http://www.w3.org/Graphics/SVG/1.1/DTD/svg11.dtd">
<svg version="1.1" id="Logo" xmlns="http://www.w3.org/2000/svg" xmlns:xlink="http://www.w3.org/1999/xlink" x="0px" y="0px"
	 width="779.535px" height="102.069px" viewBox="0 0 779.535 102.069" enable-background="new 0 0 779.535 102.069"
	 xml:space="preserve">
<g>
	<g>
		<path d="M74.444,77.413c1.013,0,1.887,0.393,2.625,1.176l7.32,7.941c-4.052,5.018-9.036,8.863-14.951,11.531
			c-5.916,2.672-13.017,4.008-21.304,4.008c-7.413,0-14.077-1.268-19.992-3.799c-5.917-2.531-10.97-6.055-15.159-10.566
			c-4.189-4.512-7.401-9.898-9.633-16.16C1.115,65.284,0,58.446,0,51.034C0,43.53,1.243,36.658,3.729,30.42
			c2.486-6.237,5.984-11.613,10.497-16.125c4.511-4.511,9.91-8.021,16.194-10.531C36.705,1.255,43.645,0,51.241,0
			c7.412,0,13.892,1.186,19.44,3.556c5.547,2.372,10.3,5.514,14.26,9.427l-6.214,8.632c-0.37,0.553-0.841,1.037-1.416,1.45
			c-0.577,0.415-1.371,0.622-2.383,0.622c-1.059,0-2.141-0.414-3.245-1.243c-1.105-0.829-2.51-1.727-4.212-2.694
			c-1.704-0.967-3.856-1.864-6.458-2.693c-2.601-0.829-5.904-1.243-9.91-1.243c-4.696,0-9.012,0.818-12.948,2.452
			c-3.937,1.634-7.32,3.971-10.152,7.01s-5.041,6.732-6.63,11.083c-1.588,4.351-2.382,9.243-2.382,14.675
			c0,5.617,0.793,10.611,2.382,14.986c1.589,4.373,3.74,8.057,6.458,11.049c2.715,2.992,5.915,5.283,9.599,6.871
			c3.683,1.588,7.642,2.381,11.878,2.381c2.532,0,4.822-0.137,6.871-0.412c2.048-0.277,3.937-0.715,5.663-1.313
			c1.726-0.598,3.36-1.369,4.903-2.314c1.542-0.941,3.073-2.105,4.592-3.486c0.46-0.414,0.943-0.748,1.45-1.002
			C73.293,77.542,73.845,77.413,74.444,77.413z"/>
		<path d="M108.143,100.961H89.497V1.105h18.646V100.961z"/>
		<path d="M195.983,1.105v15.261h-30.04v84.595h-18.577V16.366h-30.179V1.105H195.983z"/>
		<path d="M254.239,62.153v38.809h-18.577V62.153L199.269,1.105h16.367c1.61,0,2.888,0.391,3.833,1.173
			c0.943,0.783,1.737,1.772,2.383,2.97l18.299,33.355c1.06,1.98,1.98,3.856,2.763,5.628c0.783,1.773,1.496,3.511,2.141,5.214
			c0.598-1.749,1.278-3.51,2.038-5.283c0.76-1.771,1.668-3.625,2.728-5.559l18.163-33.355c0.505-1.012,1.266-1.957,2.279-2.832
			c1.012-0.874,2.301-1.312,3.867-1.312h16.436L254.239,62.153z"/>
		<path fill="#48CDED" d="M394.19,30.365c-2.303-6.152-5.542-11.387-9.723-15.709c-4.178-4.32-9.179-7.629-15-9.932
			c-5.823-2.3-12.28-3.451-19.372-3.451h-36.343v99.666h36.343c7.091,0,13.548-1.148,19.372-3.451
			c5.821-2.301,10.822-5.609,15-9.932c4.181-4.32,7.42-9.555,9.723-15.707c1.374-3.672,2.337-7.623,2.889-11.848
			c0.375-2.851,0.563-5.827,0.563-8.93C397.641,43.419,396.49,36.515,394.19,30.365z"/>
		<path d="M466.173,1.274v5.987h-52.475V47.55h43.67v5.847h-43.67v41.557h52.475v5.986h-59.729V1.274H466.173z"/>
		<path d="M537.17,1.274v5.987h-52.475V49.17h45.432v5.987h-45.432v45.783h-7.255V1.274H537.17z"/>
		<path d="M607.042,1.274v5.987h-52.475V47.55h43.67v5.847h-43.67v41.557h52.475v5.986h-59.73V1.274H607.042z"/>
		<path d="M689.167,84.178c0.47,0,0.868,0.164,1.198,0.492l2.817,3.027c-2.066,2.207-4.321,4.191-6.762,5.953
			c-2.442,1.76-5.107,3.264-7.995,4.508c-2.887,1.244-6.057,2.207-9.508,2.887c-3.452,0.68-7.244,1.023-11.376,1.023
			c-6.902,0-13.231-1.209-18.982-3.629c-5.752-2.418-10.683-5.846-14.79-10.283c-4.111-4.438-7.315-9.801-9.616-16.096
			c-2.301-6.291-3.451-13.287-3.451-20.989c0-7.56,1.186-14.462,3.558-20.708c2.37-6.245,5.705-11.61,10.001-16.095
			c4.297-4.483,9.438-7.959,15.427-10.424c5.986-2.465,12.595-3.698,19.826-3.698c3.615,0,6.926,0.271,9.932,0.81
			c3.005,0.541,5.812,1.315,8.417,2.325c2.607,1.01,5.061,2.266,7.361,3.768c2.3,1.503,4.553,3.24,6.762,5.212l-2.184,3.169
			c-0.376,0.563-0.963,0.845-1.761,0.845c-0.422,0-0.963-0.247-1.62-0.739c-0.658-0.494-1.492-1.103-2.5-1.832
			c-1.011-0.728-2.231-1.525-3.663-2.395c-1.434-0.869-3.135-1.667-5.106-2.395c-1.973-0.728-4.251-1.338-6.833-1.832
			c-2.583-0.493-5.518-0.739-8.805-0.739c-6.057,0-11.621,1.045-16.692,3.134c-5.071,2.09-9.438,5.071-13.101,8.945
			c-3.663,3.874-6.516,8.57-8.559,14.087c-2.043,5.518-3.063,11.705-3.063,18.56c0,7.044,1.01,13.337,3.028,18.878
			c2.019,5.539,4.813,10.225,8.382,14.051c3.567,3.828,7.783,6.762,12.644,8.805c4.859,2.043,10.13,3.064,15.813,3.064
			c3.567,0,6.749-0.234,9.543-0.705c2.794-0.469,5.364-1.174,7.713-2.113c2.348-0.939,4.53-2.088,6.55-3.451
			c2.019-1.361,4.015-2.957,5.987-4.789c0.234-0.188,0.458-0.34,0.67-0.459C688.639,84.237,688.886,84.178,689.167,84.178z"/>
		<path d="M779.535,1.274v6.128h-35.007v93.538h-7.184V7.402h-35.219V1.274H779.535z"/>
	</g>
	<path opacity="0.45" d="M397.079,60.002c-0.552,4.225-1.515,8.176-2.889,11.848c-2.303,6.152-5.542,11.387-9.723,15.707
		c-4.178,4.322-9.179,7.631-15,9.932c-5.823,2.303-12.28,3.451-19.372,3.451h-5.952l-0.014-0.035l-19.577-19.576l29.656-3.404
		l0.464-60.458l42.374,42.375C397.038,59.891,397.051,59.946,397.079,60.002z"/>
	<g>
		<path fill="#F96464" d="M376.921,79.897v1.432h-51.463v-1.432h1.381v-1.43h1.263v-1.301l5.207-2.822l1.133-4.807l3.554-15.079
			l3.599-15.264l3.554-15.079l1.503-6.402h0.01c0.041-0.202,0.222-0.352,0.437-0.352h8.192c0.214,0,0.394,0.15,0.437,0.352
			l1.506,6.402l3.554,15.079l3.6,15.264l3.554,15.079l1.128,4.807l5.208,2.822v1.301h1.263v1.43H376.921z"/>
		<path fill="#D35E5E" d="M376.921,79.897v1.432h-34.707v-1.432h1.379v-1.43h1.263v-1.301l5.208-2.822c0,0,0.009-2.34,0.025-6.271
			c0.017-3.572,0.037-8.465,0.063-14.105c0.019-4.393,0.039-9.243,0.062-14.281c0.021-4.615,0.039-9.383,0.059-14.105
			c0.013-2.77,0.022-5.523,0.035-8.218h4.983c0.214,0,0.394,0.15,0.437,0.352l1.506,6.402l3.554,15.079l3.6,15.264l3.554,15.079
			l1.128,4.807l5.208,2.822v1.301h1.263v1.43H376.921z"/>
		<polygon fill="#FFFFFF" points="360.17,39.687 342.212,39.687 345.538,25.58 356.846,25.58 		"/>
		<polygon fill="#FFFFFF" points="366.86,68.073 335.523,68.073 338.847,53.967 363.535,53.967 		"/>
		<polygon fill="#FFFFFF" points="347.654,19.356 335.001,73.053 335.977,73.053 348.631,19.356 		"/>
	</g>
</g>
</svg>
